<svg
      preserveAspectRatio="xMidYMid meet"
      data-bbox="19.587 20.457 158.943 157.923"
      viewBox="19.587 20.457 158.943 157.923"
      height="200"
      width="200"
      xmlns="http://www.w3.org/2000/svg"
      role="presentation"
      aria-hidden="true"
      aria-label=""
    >
      <defs>
        <style>{`#comp-kvtwvvpm1 svg [data-color="1"] {fill: #737373;}`}</style>
      </defs>
      <g>
        <path
          fill="#5e801a"
          d="M176.119 25.343l-.75-2.465-2.5-.6c-2.16-.519-53.393-12.2-96.2 30.964L72.6 57.3c-4.293 4.293-4.651 10.919-.8 14.771l16.3 16.3-9.963 9.963a9.744 9.744 0 0 0-11.654 1.591l-44.045 44.047a9.733 9.733 0 0 0 0 13.765l17.793 17.792a9.733 9.733 0 0 0 13.765 0l44.045-44.045a9.742 9.742 0 0 0 1.591-11.653l9.964-9.963 16.3 16.3a9.373 9.373 0 0 0 6.668 2.687q.486 0 .977-.047a11.719 11.719 0 0 0 7.125-3.438l4.117-4.117c45.717-46.414 31.945-93.911 31.336-95.91zm-91.358 79.1l30.886-30.886 8.768 8.767-30.886 30.883zm6.916 20.681l-44.045 44.042a.734.734 0 0 1-1.037 0L28.8 151.373a.732.732 0 0 1 0-1.037l44.045-44.045a.666.666 0 0 1 .714-.177l18.292 18.291a.725.725 0 0 1-.174.715zm77.131-69.713c-2.646 21.682-12.887 41.711-30.413 59.506l-4.093 4.092a2.176 2.176 0 0 1-2.043.8l-16.3-16.3 21.185-21.189-21.5-21.495-21.18 21.183-16.3-16.3a2.174 2.174 0 0 1 .8-2.042l4.075-4.075a99.922 99.922 0 0 1 85.074-29.043 79.869 79.869 0 0 1 .695 24.859z"
          data-color="1"
        />
      </g>
    </svg>